<svg width="1080" height="1080" viewBox="0 0 1080 1080" fill="none" xmlns="http://www.w3.org/2000/svg">
<rect width="1080" height="1080" fill="#05220B"/>
<path d="M721.688 624.375C732.563 598.5 738 570.375 738 540C738 480.375 716.813 429.562 674.438 387.562C632.438 345.187 581.625 324 522 324C462.375 324 411.375 345.187 369 387.562C327 429.562 306 480.375 306 540C306 599.625 327 650.625 369 693C411.375 735 462.375 756 522 756C559.5 756 593.625 747.562 624.375 730.688L550.125 668.25L642.375 558L721.688 624.375ZM739.688 827.438C715.313 845.813 688.687 860.813 659.812 872.438C615.563 890.813 569.625 900 522 900C474.375 900 428.437 891 384.188 873C339.938 854.625 300.938 828.562 267.188 794.812C233.438 761.062 207.375 722.062 189 677.812C171 633.563 162 587.625 162 540C162 492.375 171 446.437 189 402.188C207.375 357.938 233.438 318.938 267.188 285.188C300.938 251.438 339.938 225.562 384.188 207.562C428.437 189.187 474.375 180 522 180C569.625 180 615.563 189.187 659.812 207.562C704.062 225.562 743.062 251.438 776.812 285.188C810.562 318.938 836.438 357.938 854.438 402.188C872.813 446.437 882 492.375 882 540C882 587.625 873 633.563 855 677.812C849 692.438 842.062 706.312 834.188 719.438L918 789.75L825.75 900L739.688 827.438Z" fill="#16F98A"/>
</svg>
